<svg width="50" height="89" viewBox="0 0 50 89" fill="none" xmlns="http://www.w3.org/2000/svg">
<g clip-path="url(#clip0_8_285)">
<path d="M49.9714 44.4049C49.9714 30.6714 38.8382 19.5382 25.1048 19.5382C11.3713 19.5382 0.238098 30.6714 0.238098 44.4049C0.238098 58.1384 11.3713 69.2715 25.1048 69.2715C38.8382 69.2715 49.9714 58.1384 49.9714 44.4049Z" fill="#818181"/>
<path fill-rule="evenodd" clip-rule="evenodd" d="M9.22877 49.4238L11.884 49.1019V38.4645H9.19562V36.6686L15.0255 35.6104V49.1019L17.6793 49.4266V51.3123H9.22877V49.4238ZM29.368 39.7645C29.3806 40.5066 29.1619 41.2343 28.7422 41.8464C28.3088 42.4645 27.7158 42.9535 27.0264 43.261C27.8104 43.5752 28.4936 44.0978 29.0019 44.7724C29.4819 45.4214 29.7357 46.2101 29.7244 47.0173C29.7606 47.6528 29.6454 48.2878 29.3884 48.8702C29.1315 49.4526 28.74 49.9657 28.2462 50.3674C27.1299 51.1909 25.7638 51.6046 24.3781 51.5389C22.9886 51.6039 21.6189 51.1904 20.4975 50.3674C20.0022 49.9667 19.6093 49.4539 19.3513 48.8714C19.0934 48.2889 18.9777 47.6533 19.0138 47.0173C19.0006 46.2083 19.2529 45.4173 19.7322 44.7655C20.2386 44.0932 20.9194 43.5724 21.7008 43.2597C21.0118 42.9557 20.4207 42.4664 19.9933 41.8464C19.5803 41.2316 19.3657 40.505 19.3785 39.7645C19.3442 39.1551 19.4498 38.5459 19.6874 37.9836C19.9249 37.4214 20.2881 36.921 20.7489 36.5208C21.777 35.7161 23.0603 35.3081 24.3643 35.3714C25.6715 35.3095 26.9578 35.7172 27.9907 36.5208C28.4545 36.9192 28.8203 37.419 29.0599 37.9815C29.2994 38.544 29.4063 39.1541 29.3722 39.7645H29.368ZM26.5829 46.8004C26.5976 46.491 26.5503 46.1818 26.4437 45.8909C26.3372 45.6001 26.1737 45.3335 25.9627 45.1067C25.7543 44.8953 25.5042 44.7294 25.2283 44.6198C24.9525 44.5102 24.6568 44.4591 24.3601 44.4698C24.0659 44.458 23.7725 44.5085 23.4992 44.618C23.2259 44.7275 22.9788 44.8936 22.7742 45.1053C22.3567 45.5684 22.1392 46.1777 22.1691 46.8004C22.1519 47.1096 22.1965 47.4192 22.3004 47.711C22.4043 48.0028 22.5654 48.2709 22.7742 48.4996C23.2104 48.9007 23.7814 49.1232 24.374 49.1232C24.9665 49.1232 25.5375 48.9007 25.9737 48.4996C26.1833 48.2713 26.3452 48.0033 26.4499 47.7115C26.5545 47.4197 26.5997 47.1099 26.5829 46.8004ZM26.2169 39.904C26.2423 39.3528 26.0632 38.8116 25.714 38.3844C25.546 38.1929 25.3371 38.0416 25.1028 37.9416C24.8684 37.8417 24.6146 37.7956 24.3601 37.8069C24.1078 37.7932 23.8556 37.8371 23.6228 37.9352C23.3899 38.0334 23.1824 38.1832 23.016 38.3734C22.6764 38.8115 22.5062 39.3574 22.5366 39.9109C22.5067 40.4725 22.6787 41.0262 23.0215 41.472C23.1962 41.6544 23.4061 41.7996 23.6384 41.8987C23.8707 41.9979 24.1207 42.049 24.3733 42.049C24.6259 42.049 24.8758 41.9979 25.1082 41.8987C25.3405 41.7996 25.5503 41.6544 25.725 41.472C26.0721 41.0287 26.2468 40.4746 26.2169 39.9123V39.904ZM37.7536 42.5482H41.6287V45.2683H37.7536V49.736H34.7641V45.2683H30.8572V42.5482H34.7641V38.296H37.7536V42.5482Z" fill="#EEEEEE"/>
</g>
<defs>
<clipPath id="clip0_8_285">
<rect width="49.7333" height="49.7333" fill="white" transform="translate(0.238098 19.5382)"/>
</clipPath>
</defs>
</svg>
